<svg width="20" height="20" viewBox="0 0 20 20" fill="none" xmlns="http://www.w3.org/2000/svg">
<g clip-path="url(#clip0_1_329)">
<circle cx="10" cy="10" r="10" fill="#68D585"/>
<path d="M13.7305 11.4707V13H7.95898C8.02148 12.4219 8.20898 11.875 8.52148 11.3594C8.83398 10.8398 9.45117 10.1523 10.373 9.29688C11.1152 8.60547 11.5703 8.13672 11.7383 7.89062C11.9648 7.55078 12.0781 7.21484 12.0781 6.88281C12.0781 6.51562 11.9785 6.23438 11.7793 6.03906C11.584 5.83984 11.3125 5.74023 10.9648 5.74023C10.6211 5.74023 10.3477 5.84375 10.1445 6.05078C9.94141 6.25781 9.82422 6.60156 9.79297 7.08203L8.15234 6.91797C8.25 6.01172 8.55664 5.36133 9.07227 4.9668C9.58789 4.57227 10.2324 4.375 11.0059 4.375C11.8535 4.375 12.5195 4.60352 13.0039 5.06055C13.4883 5.51758 13.7305 6.08594 13.7305 6.76562C13.7305 7.15234 13.6602 7.52148 13.5195 7.87305C13.3828 8.2207 13.1641 8.58594 12.8633 8.96875C12.6641 9.22266 12.3047 9.58789 11.7852 10.0645C11.2656 10.541 10.9355 10.8574 10.7949 11.0137C10.6582 11.1699 10.5469 11.3223 10.4609 11.4707H13.7305Z" fill="white"/>
</g>
<defs>
<clipPath id="clip0_1_329">
<rect width="20" height="20" fill="white"/>
</clipPath>
</defs>
</svg>
